<svg width="64" height="64" viewBox="0 0 64 64" fill="none" xmlns="http://www.w3.org/2000/svg">
<path d="M32.0001 1.00146C14.8801 1.00146 1.00146 14.8801 1.00146 32.0001C1.00146 49.1201 14.8801 62.9987 32.0001 62.9987C49.1201 62.9987 62.9987 49.1201 62.9987 32.0001C62.9987 14.8801 49.1201 1.00146 32.0001 1.00146ZM32.0001 43.0788C25.8815 43.0788 20.9213 38.1187 20.9213 32.0001C20.9213 25.8816 25.8815 20.9213 32.0001 20.9213C38.1187 20.9213 43.0788 25.8815 43.0788 32.0001C43.0788 38.1187 38.1187 43.0788 32.0001 43.0788Z" fill="#FEC782"/>
<path d="M32.0001 1.00146C14.8801 1.00146 1.00146 14.8801 1.00146 32.0001C1.00146 33.2776 1.08034 34.5366 1.23071 35.7737C3.61971 38.4475 7.09371 40.1313 10.9615 40.1313C15.1918 40.1313 18.951 38.1173 21.3348 34.9963C21.0673 34.043 20.9213 33.039 20.9213 32.0002C20.9213 25.8817 25.8815 20.9215 32.0001 20.9215C38.1187 20.9215 43.0788 25.8816 43.0788 32.0002C43.0788 33.0388 42.9327 34.043 42.6653 34.9963C45.0491 38.1173 48.8085 40.1313 53.0387 40.1313C56.9066 40.1313 60.3806 38.4476 62.7695 35.7737C62.9198 34.5366 62.9987 33.2777 62.9987 32.0001C62.9987 14.8801 49.1201 1.00146 32.0001 1.00146Z" fill="#805A29"/>
<path d="M48.7598 27.449C48.5035 27.449 48.2472 27.3513 48.0517 27.1558L45.1699 24.2743C44.7787 23.8832 44.7787 23.2492 45.1698 22.858C45.561 22.4669 46.1952 22.4669 46.5859 22.858L49.4677 25.7397C49.8589 26.1308 49.8589 26.7648 49.4678 27.1559C49.2723 27.3513 49.0159 27.449 48.7598 27.449Z" fill="#98E338"/>
<path d="M57.0127 26.0084C56.7565 26.0084 56.5001 25.9106 56.3046 25.7151L53.4228 22.8336C53.0316 22.4425 53.0316 21.8085 53.4227 21.4174C53.814 21.0262 54.448 21.0262 54.8388 21.4174L57.7206 24.2989C58.1119 24.69 58.1119 25.324 57.7207 25.7151C57.5254 25.9106 57.269 26.0084 57.0127 26.0084Z" fill="#ED0925"/>
<path d="M50.6016 35.4825C50.3453 35.4825 50.089 35.3847 49.8935 35.1892L47.0117 32.3077C46.6205 31.9166 46.6205 31.2826 47.0116 30.8915C47.4028 30.5004 48.0368 30.5004 48.4277 30.8915L51.3095 33.773C51.7007 34.1641 51.7007 34.7981 51.3096 35.1892C51.1141 35.3847 50.8576 35.4825 50.6016 35.4825Z" fill="#FFC700"/>
<path d="M33.6724 17.3328C33.416 17.3328 33.1598 17.235 32.9643 17.0394L30.0825 14.1578C29.6913 13.7666 29.6913 13.1328 30.0824 12.7416C30.4736 12.3505 31.1078 12.3504 31.4986 12.7416L34.3804 15.6233C34.7716 16.0144 34.7716 16.6483 34.3805 17.0394C34.185 17.235 33.9286 17.3328 33.6724 17.3328Z" fill="#98E338"/>
<path d="M10.8202 26.0083C10.564 26.0083 10.3076 25.9105 10.1121 25.7149L7.23046 22.8334C6.83921 22.4423 6.83921 21.8084 7.23034 21.4172C7.62159 21.026 8.25571 21.0259 8.64646 21.4172L11.5281 24.2987C11.9193 24.6898 11.9193 25.3237 11.5282 25.7148C11.3327 25.9105 11.0763 26.0083 10.8202 26.0083Z" fill="#F695FF"/>
<path d="M9.37931 35.4826C9.12306 35.4826 8.86669 35.3849 8.67106 35.1892L5.78944 32.3076C5.39831 31.9165 5.39831 31.2825 5.78944 30.8915C6.18069 30.5004 6.81456 30.5004 7.20569 30.8915L10.0873 33.7731C10.4784 34.1642 10.4784 34.7982 10.0873 35.1892C9.89194 35.3847 9.63556 35.4826 9.37931 35.4826Z" fill="#98E338"/>
<path d="M19.7179 21.3622C19.4615 21.3622 19.2053 21.2644 19.0097 21.0688C18.6185 20.6777 18.6185 20.0437 19.0097 19.6527L21.8914 16.7709C22.2827 16.3797 22.9165 16.3798 23.3077 16.7709C23.6988 17.1621 23.6988 17.7961 23.3077 18.1871L20.4259 21.0688C20.2305 21.2646 19.9742 21.3622 19.7179 21.3622Z" fill="#FFC700"/>
<path d="M26.2482 8.68757C25.9918 8.68757 25.7356 8.58982 25.5399 8.39419C25.1488 8.00307 25.1488 7.36907 25.5399 6.97807L28.4217 4.09632C28.8131 3.7052 29.4471 3.7052 29.8379 4.09632C30.2291 4.48745 30.2291 5.12145 29.8379 5.51257L26.9563 8.39419C26.7608 8.58982 26.5044 8.68757 26.2482 8.68757Z" fill="#FFC700"/>
<path d="M14.4147 30.5979C14.1583 30.5979 13.9021 30.5002 13.7064 30.3045C13.3153 29.9134 13.3153 29.2794 13.7064 28.8883L16.5882 26.0065C16.9796 25.6153 17.6136 25.6154 18.0044 26.0065C18.3956 26.3977 18.3956 27.0317 18.0044 27.4227L15.1227 30.3044C14.9273 30.5 14.6709 30.5979 14.4147 30.5979Z" fill="#797EFF"/>
<path d="M41.0294 15.8216C40.7732 15.8216 40.5168 15.7239 40.3212 15.5282C39.9301 15.1371 39.9301 14.5031 40.3212 14.1121L43.2029 11.2304C43.5942 10.8392 44.228 10.8392 44.6193 11.2304C45.0104 11.6215 45.0104 12.2555 44.6193 12.6465L41.7376 15.5282C41.5421 15.7239 41.2857 15.8216 41.0294 15.8216Z" fill="#FFC700"/>
<path d="M48.4933 18.4806C48.2369 18.4806 47.9807 18.3828 47.785 18.1872C47.3939 17.7961 47.3939 17.1621 47.785 16.7711L50.6668 13.8893C51.0582 13.4981 51.692 13.4982 52.083 13.8893C52.4742 14.2805 52.4742 14.9145 52.083 15.3055L49.2013 18.1872C49.0059 18.3828 48.7495 18.4806 48.4933 18.4806Z" fill="#F695FF"/>
<path d="M36.0953 10.1285C35.8391 10.1285 35.5827 10.0308 35.3872 9.83516C34.996 9.44404 34.996 8.81016 35.3871 8.41904L38.2687 5.53729C38.6599 5.14616 39.2941 5.14604 39.6848 5.53729C40.0761 5.92841 40.0761 6.56229 39.6849 6.95341L36.8033 9.83516C36.608 10.0308 36.3516 10.1285 36.0953 10.1285Z" fill="#F695FF"/>
<path d="M56.3654 34.0417C56.1091 34.0417 55.8527 33.944 55.6571 33.7484C55.266 33.3572 55.266 32.7232 55.6571 32.3322L58.5389 29.4505C58.9301 29.0595 59.564 29.0595 59.9551 29.4505C60.3462 29.8416 60.3462 30.4756 59.9551 30.8666L57.0734 33.7484C56.8779 33.944 56.6217 34.0417 56.3654 34.0417Z" fill="#797EFF"/>
<path d="M21.2652 13.0103C21.0089 13.0103 20.7526 12.9126 20.5569 12.717L17.6752 9.8352C17.2841 9.44408 17.2841 8.81008 17.6752 8.41908C18.0664 8.02795 18.7003 8.02795 19.0914 8.41908L21.9732 11.3008C22.3643 11.692 22.3643 12.326 21.9732 12.717C21.7778 12.9126 21.5214 13.0103 21.2652 13.0103Z" fill="#797EFF"/>
<path d="M15.125 18.5068C14.8688 18.5068 14.6124 18.409 14.4168 18.2134L11.535 15.3317C11.1439 14.9405 11.1439 14.3065 11.535 13.9154C11.9263 13.5243 12.5602 13.5243 12.9513 13.9154L15.833 16.7972C16.2242 17.1883 16.2242 17.8223 15.833 18.2134C15.6377 18.4089 15.3813 18.5068 15.125 18.5068Z" fill="#ED0925"/>
<path d="M18.0067 49.5328C19.0082 49.5328 19.8201 48.7209 19.8201 47.7194C19.8201 46.7179 19.0082 45.906 18.0067 45.906C17.0052 45.906 16.1934 46.7179 16.1934 47.7194C16.1934 48.7209 17.0052 49.5328 18.0067 49.5328Z" fill="#3F4963"/>
<path d="M45.9929 49.5325C46.9944 49.5325 47.8062 48.7207 47.8062 47.7193C47.8062 46.7178 46.9944 45.906 45.9929 45.906C44.9915 45.906 44.1797 46.7178 44.1797 47.7193C44.1797 48.7207 44.9915 49.5325 45.9929 49.5325Z" fill="#3F4963"/>
<path d="M19.9467 54.0569H16.0673C15.5142 54.0569 15.0659 53.6086 15.0659 53.0556C15.0659 52.5026 15.5142 52.0542 16.0673 52.0542H19.9467C20.4998 52.0542 20.948 52.5026 20.948 53.0556C20.948 53.6086 20.4997 54.0569 19.9467 54.0569Z" fill="#EC98A3"/>
<path d="M47.9326 54.0569H44.0531C43.5 54.0569 43.0518 53.6086 43.0518 53.0556C43.0518 52.5026 43.5 52.0542 44.0531 52.0542H47.9326C48.4858 52.0542 48.934 52.5026 48.934 53.0556C48.934 53.6086 48.4859 54.0569 47.9326 54.0569Z" fill="#EC98A3"/>
<path d="M29.3699 52.804C27.5659 52.804 26.0981 51.3364 26.0981 49.5324C26.0981 48.9794 26.5464 48.531 27.0995 48.531C27.6526 48.531 28.1009 48.9794 28.1009 49.5324C28.1009 50.232 28.6701 50.8013 29.3698 50.8013C30.0694 50.8013 30.6388 50.232 30.6388 49.5324C30.6388 48.9794 31.087 48.531 31.6401 48.531C32.1933 48.531 32.6415 48.9794 32.6415 49.5324C32.6418 51.3364 31.174 52.804 29.3699 52.804Z" fill="#3F4963"/>
<path d="M33.9104 52.804C32.1064 52.804 30.6387 51.3364 30.6387 49.5324C30.6387 48.9794 31.0869 48.531 31.64 48.531C32.1932 48.531 32.6414 48.9794 32.6414 49.5324C32.6414 50.232 33.2107 50.8013 33.9103 50.8013C34.6099 50.8013 35.1792 50.232 35.1792 49.5324C35.1792 48.9794 35.6274 48.531 36.1806 48.531C36.7337 48.531 37.1819 48.9794 37.1819 49.5324C37.1821 51.3364 35.7143 52.804 33.9104 52.804Z" fill="#3F4963"/>
<path d="M36.1809 48.5311C35.6277 48.5311 35.1795 48.9795 35.1795 49.5325C35.1795 50.2321 34.6103 50.8014 33.9106 50.8014C33.211 50.8014 32.6418 50.2321 32.6418 49.5325C32.6418 48.9795 32.1935 48.5311 31.6404 48.5311C31.0873 48.5311 30.639 48.9795 30.639 49.5325C30.639 50.2321 30.0696 50.8014 29.37 50.8014C28.6704 50.8014 28.1011 50.2321 28.1011 49.5325C28.1011 48.9795 27.6529 48.5311 27.0998 48.5311C26.5466 48.5311 26.0984 48.9795 26.0984 49.5325C26.0984 51.3365 27.566 52.8041 29.3701 52.8041C30.2514 52.8041 31.0517 52.4534 31.6405 51.8849C32.2294 52.4534 33.0295 52.8041 33.9108 52.8041C35.7148 52.8041 37.1824 51.3365 37.1824 49.5325C37.1823 48.9795 36.7339 48.5311 36.1809 48.5311ZM18.007 45.9066C17.0056 45.9066 16.1938 46.7184 16.1938 47.7199C16.1938 48.7214 17.0056 49.5332 18.007 49.5332C19.0085 49.5332 19.8204 48.7214 19.8204 47.7199C19.8204 46.7184 19.0086 45.9066 18.007 45.9066ZM45.993 45.9066C44.9916 45.9066 44.1797 46.7184 44.1797 47.7199C44.1797 48.7214 44.9915 49.5332 45.993 49.5332C46.9945 49.5332 47.8063 48.7214 47.8063 47.7199C47.8063 46.7184 46.9944 45.9066 45.993 45.9066ZM54.6274 9.37263C48.5834 3.32863 40.5475 0 32 0C23.4525 0 15.4166 3.32863 9.37263 9.37263C3.32863 15.4166 0 23.4525 0 32C0 40.5475 3.32863 48.5834 9.37263 54.6274C15.4166 60.6714 23.4525 64 32 64C40.5475 64 48.5834 60.6714 54.6274 54.6274C60.6716 48.5834 64 40.5475 64 32C64 23.4525 60.6714 15.4166 54.6274 9.37263ZM53.2113 53.2113C47.5455 58.877 40.0125 61.9972 32.0001 61.9972C23.9878 61.9972 16.4546 58.877 10.789 53.2113C6.67312 49.0954 3.90225 43.9937 2.69325 38.4389C5.07662 40.173 7.96975 41.1325 10.9616 41.1325C14.783 41.1325 18.3464 39.6216 20.9757 36.9369C22.867 41.1435 27.0969 44.0801 32.0001 44.0801C36.9034 44.0801 41.1333 41.1435 43.0245 36.9369C45.654 39.6216 49.2172 41.1325 53.0386 41.1325C56.0305 41.1325 58.9236 40.173 61.307 38.4389C60.0981 43.9936 57.3271 49.0954 53.2113 53.2113ZM21.9228 32C21.9228 26.4434 26.4434 21.9228 32 21.9228C37.5566 21.9228 42.0773 26.4434 42.0773 32C42.0773 37.5566 37.5567 42.0773 32 42.0773C26.4433 42.0773 21.9228 37.5566 21.9228 32ZM53.0386 39.1297C49.4139 39.1297 46.0598 37.544 43.7609 34.7636C43.9694 33.8759 44.0802 32.9506 44.0802 32.0001C44.0802 25.3391 38.6611 19.92 32.0001 19.92C25.3391 19.92 19.92 25.3391 19.92 32.0001C19.92 32.9506 20.0309 33.8759 20.2394 34.7636C17.9404 37.5441 14.5863 39.1297 10.9616 39.1297C7.64 39.1297 4.46012 37.7505 2.18738 35.3349C2.06638 34.2349 2.00288 33.1224 2.00288 31.9999C2.00288 23.9874 5.12312 16.4545 10.7889 10.7887C16.4545 5.12312 23.9875 2.00288 32 2.00288C40.0125 2.00288 47.5455 5.12312 53.2111 10.7889C58.8769 16.4546 61.9971 23.9876 61.9971 32C61.9971 33.1225 61.9336 34.235 61.8128 35.335C59.5401 37.7504 56.3601 39.1297 53.0386 39.1297Z" fill="black"/>
</svg>
