<svg width="64" height="64" viewBox="0 0 64 64" fill="none" xmlns="http://www.w3.org/2000/svg">
<path d="M32.0001 1.00146C14.8801 1.00146 1.00146 14.8801 1.00146 32.0001C1.00146 49.1201 14.8801 62.9987 32.0001 62.9987C49.1201 62.9987 62.9987 49.1201 62.9987 32.0001C62.9987 14.8801 49.1201 1.00146 32.0001 1.00146ZM32.0001 43.0788C25.8815 43.0788 20.9213 38.1187 20.9213 32.0001C20.9213 25.8816 25.8815 20.9213 32.0001 20.9213C38.1187 20.9213 43.0788 25.8815 43.0788 32.0001C43.0788 38.1187 38.1187 43.0788 32.0001 43.0788Z" fill="#FEC782"/>
<path d="M32.0001 1.00146C14.8801 1.00146 1.00146 14.8801 1.00146 32.0001C1.00146 33.2776 1.08034 34.5366 1.23071 35.7737C3.61971 38.4475 7.09371 40.1313 10.9615 40.1313C15.1918 40.1313 18.951 38.1173 21.3348 34.9963C21.0673 34.043 20.9213 33.039 20.9213 32.0002C20.9213 25.8817 25.8815 20.9215 32.0001 20.9215C38.1187 20.9215 43.0788 25.8816 43.0788 32.0002C43.0788 33.0388 42.9327 34.043 42.6653 34.9963C45.0491 38.1173 48.8085 40.1313 53.0387 40.1313C56.9066 40.1313 60.3806 38.4476 62.7695 35.7737C62.9198 34.5366 62.9987 33.2777 62.9987 32.0001C62.9987 14.8801 49.1201 1.00146 32.0001 1.00146Z" fill="white"/>
<path d="M48.7598 27.449C48.5035 27.449 48.2472 27.3513 48.0517 27.1558L45.1699 24.2743C44.7787 23.8832 44.7787 23.2492 45.1698 22.858C45.561 22.4669 46.1952 22.4669 46.5859 22.858L49.4677 25.7397C49.8589 26.1308 49.8589 26.7648 49.4678 27.1559C49.2723 27.3513 49.0159 27.449 48.7598 27.449Z" fill="#98E338"/>
<path d="M57.0127 26.0084C56.7565 26.0084 56.5001 25.9106 56.3046 25.7151L53.4228 22.8336C53.0316 22.4425 53.0316 21.8085 53.4227 21.4174C53.814 21.0262 54.448 21.0262 54.8388 21.4174L57.7206 24.2989C58.1119 24.69 58.1119 25.324 57.7207 25.7151C57.5254 25.9106 57.269 26.0084 57.0127 26.0084Z" fill="#ED0925"/>
<path d="M50.6016 35.4827C50.3453 35.4827 50.089 35.385 49.8935 35.1895L47.0117 32.308C46.6205 31.9169 46.6205 31.2829 47.0116 30.8917C47.4028 30.5006 48.0368 30.5006 48.4277 30.8917L51.3095 33.7732C51.7007 34.1644 51.7007 34.7984 51.3096 35.1895C51.1141 35.385 50.8576 35.4827 50.6016 35.4827Z" fill="#FFC700"/>
<path d="M33.6724 17.333C33.416 17.333 33.1598 17.2352 32.9643 17.0396L30.0825 14.158C29.6913 13.7669 29.6913 13.133 30.0824 12.7419C30.4736 12.3508 31.1078 12.3506 31.4986 12.7419L34.3804 15.6235C34.7716 16.0146 34.7716 16.6485 34.3805 17.0396C34.185 17.2352 33.9286 17.333 33.6724 17.333Z" fill="#98E338"/>
<path d="M10.8197 26.0083C10.5635 26.0083 10.3071 25.9105 10.1116 25.7149L7.22998 22.8334C6.83873 22.4423 6.83873 21.8084 7.22985 21.4172C7.6211 21.026 8.25523 21.0259 8.64598 21.4172L11.5276 24.2987C11.9189 24.6898 11.9189 25.3237 11.5277 25.7148C11.3322 25.9105 11.0759 26.0083 10.8197 26.0083Z" fill="#F695FF"/>
<path d="M9.37882 35.4826C9.12257 35.4826 8.8662 35.3849 8.67057 35.1892L5.78895 32.3076C5.39782 31.9165 5.39782 31.2825 5.78895 30.8915C6.1802 30.5004 6.81407 30.5004 7.2052 30.8915L10.0868 33.7731C10.478 34.1642 10.478 34.7982 10.0868 35.1892C9.89145 35.3847 9.63507 35.4826 9.37882 35.4826Z" fill="#98E338"/>
<path d="M19.7179 21.3622C19.4615 21.3622 19.2053 21.2644 19.0097 21.0688C18.6185 20.6777 18.6185 20.0437 19.0097 19.6527L21.8914 16.7709C22.2827 16.3797 22.9165 16.3798 23.3077 16.7709C23.6988 17.1621 23.6988 17.7961 23.3077 18.1871L20.4259 21.0688C20.2305 21.2646 19.9742 21.3622 19.7179 21.3622Z" fill="#FFC700"/>
<path d="M26.2482 8.68757C25.9918 8.68757 25.7356 8.58982 25.5399 8.39419C25.1488 8.00307 25.1488 7.36907 25.5399 6.97807L28.4217 4.09632C28.8131 3.7052 29.4471 3.7052 29.8379 4.09632C30.2291 4.48745 30.2291 5.12145 29.8379 5.51257L26.9563 8.39419C26.7608 8.58982 26.5044 8.68757 26.2482 8.68757Z" fill="#FFC700"/>
<path d="M14.4147 30.5979C14.1583 30.5979 13.9021 30.5002 13.7064 30.3045C13.3153 29.9134 13.3153 29.2794 13.7064 28.8883L16.5882 26.0065C16.9796 25.6153 17.6136 25.6154 18.0044 26.0065C18.3956 26.3977 18.3956 27.0317 18.0044 27.4227L15.1227 30.3044C14.9273 30.5 14.6709 30.5979 14.4147 30.5979Z" fill="#797EFF"/>
<path d="M41.0289 15.8214C40.7727 15.8214 40.5163 15.7236 40.3207 15.528C39.9296 15.1369 39.9296 14.5029 40.3207 14.1119L43.2024 11.2301C43.5937 10.839 44.2276 10.839 44.6188 11.2301C45.0099 11.6212 45.0099 12.2552 44.6188 12.6462L41.7371 15.528C41.5416 15.7236 41.2852 15.8214 41.0289 15.8214Z" fill="#FFC700"/>
<path d="M48.4933 18.4806C48.2369 18.4806 47.9807 18.3828 47.785 18.1872C47.3939 17.7961 47.3939 17.1621 47.785 16.7711L50.6668 13.8893C51.0582 13.4981 51.692 13.4982 52.083 13.8893C52.4742 14.2805 52.4742 14.9145 52.083 15.3055L49.2013 18.1872C49.0059 18.3828 48.7495 18.4806 48.4933 18.4806Z" fill="#F695FF"/>
<path d="M36.0953 10.1285C35.8391 10.1285 35.5827 10.0308 35.3872 9.83516C34.996 9.44404 34.996 8.81016 35.3871 8.41904L38.2687 5.53729C38.6599 5.14616 39.2941 5.14604 39.6848 5.53729C40.0761 5.92841 40.0761 6.56229 39.6849 6.95341L36.8033 9.83516C36.608 10.0308 36.3516 10.1285 36.0953 10.1285Z" fill="#F695FF"/>
<path d="M56.3654 34.042C56.1091 34.042 55.8527 33.9442 55.6571 33.7486C55.266 33.3575 55.266 32.7235 55.6571 32.3325L58.5389 29.4507C58.9301 29.0597 59.564 29.0597 59.9551 29.4507C60.3462 29.8418 60.3462 30.4759 59.9551 30.8669L57.0734 33.7486C56.8779 33.9442 56.6217 34.042 56.3654 34.042Z" fill="#797EFF"/>
<path d="M21.2652 13.0106C21.0089 13.0106 20.7526 12.9128 20.5569 12.7172L17.6752 9.83545C17.2841 9.44432 17.2841 8.81032 17.6752 8.41932C18.0664 8.0282 18.7003 8.0282 19.0914 8.41932L21.9732 11.3011C22.3643 11.6922 22.3643 12.3262 21.9732 12.7172C21.7778 12.9128 21.5214 13.0106 21.2652 13.0106Z" fill="#797EFF"/>
<path d="M15.125 18.5068C14.8688 18.5068 14.6124 18.409 14.4168 18.2134L11.535 15.3317C11.1439 14.9405 11.1439 14.3065 11.535 13.9154C11.9263 13.5243 12.5602 13.5243 12.9513 13.9154L15.833 16.7972C16.2242 17.1883 16.2242 17.8223 15.833 18.2134C15.6377 18.4089 15.3813 18.5068 15.125 18.5068Z" fill="#ED0925"/>
<path d="M18.0067 49.5327C19.0082 49.5327 19.8201 48.7209 19.8201 47.7194C19.8201 46.7179 19.0082 45.906 18.0067 45.906C17.0052 45.906 16.1934 46.7179 16.1934 47.7194C16.1934 48.7209 17.0052 49.5327 18.0067 49.5327Z" fill="black"/>
<path d="M45.9929 49.5327C46.9944 49.5327 47.8062 48.7209 47.8062 47.7195C47.8062 46.7181 46.9944 45.9062 45.9929 45.9062C44.9915 45.9062 44.1797 46.7181 44.1797 47.7195C44.1797 48.7209 44.9915 49.5327 45.9929 49.5327Z" fill="black"/>
<path d="M19.9467 54.0569H16.0673C15.5142 54.0569 15.0659 53.6086 15.0659 53.0556C15.0659 52.5026 15.5142 52.0542 16.0673 52.0542H19.9467C20.4998 52.0542 20.948 52.5026 20.948 53.0556C20.948 53.6086 20.4997 54.0569 19.9467 54.0569Z" fill="#EC98A3"/>
<path d="M47.9326 54.0569H44.0531C43.5 54.0569 43.0518 53.6086 43.0518 53.0556C43.0518 52.5026 43.5 52.0542 44.0531 52.0542H47.9326C48.4858 52.0542 48.934 52.5026 48.934 53.0556C48.934 53.6086 48.4859 54.0569 47.9326 54.0569Z" fill="#EC98A3"/>
<path d="M31.7717 52.804C29.9677 52.804 28.5 51.3364 28.5 49.5324C28.5 48.9794 28.9483 48.531 29.5014 48.531C30.0545 48.531 30.5028 48.9794 30.5028 49.5324C30.5028 50.232 31.072 50.8013 31.7716 50.8013C32.4712 50.8013 33.0406 50.232 33.0406 49.5324C33.0406 48.9794 33.4889 48.531 34.042 48.531C34.5951 48.531 35.0434 48.9794 35.0434 49.5324C35.0436 51.3364 33.5759 52.804 31.7717 52.804Z" fill="black"/>
<path d="M18.007 45.9066C17.0056 45.9066 16.1938 46.7184 16.1938 47.7199C16.1938 48.7214 17.0056 49.5332 18.007 49.5332C19.0085 49.5332 19.8204 48.7214 19.8204 47.7199C19.8204 46.7184 19.0086 45.9066 18.007 45.9066ZM45.993 45.9066C44.9916 45.9066 44.1797 46.7184 44.1797 47.7199C44.1797 48.7214 44.9915 49.5332 45.993 49.5332C46.9945 49.5332 47.8063 48.7214 47.8063 47.7199C47.8063 46.7184 46.9944 45.9066 45.993 45.9066ZM54.6274 9.37263C48.5834 3.32863 40.5475 0 32 0C23.4525 0 15.4166 3.32863 9.37263 9.37263C3.32863 15.4166 0 23.4525 0 32C0 40.5475 3.32863 48.5834 9.37263 54.6274C15.4166 60.6714 23.4525 64 32 64C40.5475 64 48.5834 60.6714 54.6274 54.6274C60.6716 48.5834 64 40.5475 64 32C64 23.4525 60.6714 15.4166 54.6274 9.37263ZM53.2113 53.2113C47.5455 58.877 40.0125 61.9972 32.0001 61.9972C23.9878 61.9972 16.4546 58.877 10.789 53.2113C6.67312 49.0954 3.90225 43.9937 2.69325 38.4389C5.07662 40.173 7.96975 41.1325 10.9616 41.1325C14.783 41.1325 18.3464 39.6216 20.9757 36.9369C22.867 41.1435 27.0969 44.0801 32.0001 44.0801C36.9034 44.0801 41.1333 41.1435 43.0245 36.9369C45.654 39.6216 49.2172 41.1325 53.0386 41.1325C56.0305 41.1325 58.9236 40.173 61.307 38.4389C60.0981 43.9936 57.3271 49.0954 53.2113 53.2113ZM21.9228 32C21.9228 26.4434 26.4434 21.9228 32 21.9228C37.5566 21.9228 42.0773 26.4434 42.0773 32C42.0773 37.5566 37.5567 42.0773 32 42.0773C26.4433 42.0773 21.9228 37.5566 21.9228 32ZM53.0386 39.1297C49.4139 39.1297 46.0598 37.544 43.7609 34.7636C43.9694 33.8759 44.0802 32.9506 44.0802 32.0001C44.0802 25.3391 38.6611 19.92 32.0001 19.92C25.3391 19.92 19.92 25.3391 19.92 32.0001C19.92 32.9506 20.0309 33.8759 20.2394 34.7636C17.9404 37.5441 14.5863 39.1297 10.9616 39.1297C7.64 39.1297 4.46012 37.7505 2.18738 35.3349C2.06638 34.2349 2.00288 33.1224 2.00288 31.9999C2.00288 23.9874 5.12312 16.4545 10.7889 10.7887C16.4545 5.12312 23.9875 2.00288 32 2.00288C40.0125 2.00288 47.5455 5.12312 53.2111 10.7889C58.8769 16.4546 61.9971 23.9876 61.9971 32C61.9971 33.1225 61.9336 34.235 61.8128 35.335C59.5401 37.7504 56.3601 39.1297 53.0386 39.1297Z" fill="black"/>
</svg>
